grf
version=1
nRows=12
nColumns=37
inDegrees=no
endheader
time	ground_force_1_vx	ground_force_1_vy	ground_force_1_vz	ground_force_1_px	ground_force_1_py	ground_force_1_pz	ground_moment_1_mx	ground_moment_1_my	ground_moment_1_mz	ground_force_2_vx	ground_force_2_vy	ground_force_2_vz	ground_force_2_px	ground_force_2_py	ground_force_2_pz	ground_moment_2_mx	ground_moment_2_my	ground_moment_2_mz	ground_force_3_vx	ground_force_3_vy	ground_force_3_vz	ground_force_3_px	ground_force_3_py	ground_force_3_pz	ground_moment_3_mx	ground_moment_3_my	ground_moment_3_mz	ground_force_4_vx	ground_force_4_vy	ground_force_4_vz	ground_force_4_px	ground_force_4_py	ground_force_4_pz	ground_moment_4_mx	ground_moment_4_my	ground_moment_4_mz
      3.64000000	      0.00000000	     -0.00000000	      0.00000000	      0.00000000	      0.00000000	      0.00000000	      0.00000000	      0.00000000	      0.00000000	     -7.94988728	     13.00289536	   -265.89093018	   -351.26958695	  -1093.98154903	      0.00000000	      0.00000000	      0.00000000	   3753.24668919	     -4.86500631	    -14.74270778	   -242.60491943	   -350.96926227	   -736.23614045	      0.00000000	      0.00000000	     -0.00000000	  -4705.61575666	      0.00000000	     -0.00000000	      0.00000000	      0.00000000	      0.00000000	      0.00000000	      0.00000000	      0.00000000	      0.00000000
      3.65000000	      0.00000000	     -0.00000000	      0.00000000	      0.00000000	      0.00000000	      0.00000000	      0.00000000	      0.00000000	      0.00000000	     -8.82524490	     12.64333630	   -264.12637329	   -351.53732669	  -1092.45064624	      0.00000000	      0.00000000	     -0.00000000	   3559.19785530	     -4.79725680	    -14.72577053	   -237.82635498	   -351.51247249	   -738.11579854	      0.00000000	      0.00000000	     -0.00000000	  -4664.89586294	      0.00000000	     -0.00000000	      0.00000000	      0.00000000	      0.00000000	      0.00000000	      0.00000000	      0.00000000	      0.00000000
      3.66000000	      0.00000000	     -0.00000000	      0.00000000	      0.00000000	      0.00000000	      0.00000000	      0.00000000	      0.00000000	      0.00000000	     -9.08997536	     12.73299694	   -262.46286011	   -353.00085450	  -1091.79121267	      0.00000000	      0.00000000	      0.00000000	   3453.77785791	     -4.70167284	    -14.21979100	   -236.01348877	   -351.15672358	   -736.31963441	      0.00000000	      0.00000000	     -0.00000000	  -4580.52473438	      0.00000000	     -0.00000000	      0.00000000	      0.00000000	      0.00000000	      0.00000000	      0.00000000	      0.00000000	      0.00000000
      3.67000000	      0.00000000	     -0.00000000	      0.00000000	      0.00000000	      0.00000000	      0.00000000	      0.00000000	      0.00000000	      0.00000000	     -8.02284813	     11.34088421	   -261.76672363	   -354.49571604	  -1090.84449306	      0.00000000	      0.00000000	      0.00000000	   3599.88786997	     -5.39222603	    -14.15686846	   -235.36584473	   -349.74712651	   -736.73821330	      0.00000000	      0.00000000	     -0.00000000	  -4300.61505905	      0.00000000	     -0.00000000	      0.00000000	      0.00000000	      0.00000000	      0.00000000	      0.00000000	      0.00000000	      0.00000000
      3.68000000	      0.00000000	     -0.00000000	      0.00000000	      0.00000000	      0.00000000	      0.00000000	      0.00000000	      0.00000000	      0.00000000	     -5.63484907	     10.89722729	   -266.94628906	   -356.43465409	  -1090.94982312	      0.00000000	      0.00000000	      0.00000000	   3810.29107511	     -5.40218479	    -14.39034510	   -235.02717590	   -350.57076873	   -738.87250730	      0.00000000	      0.00000000	     -0.00000000	  -4278.94547295	      0.00000000	     -0.00000000	      0.00000000	      0.00000000	      0.00000000	      0.00000000	      0.00000000	      0.00000000	      0.00000000
      3.69000000	      0.00000000	     -0.00000000	      0.00000000	      0.00000000	      0.00000000	      0.00000000	      0.00000000	      0.00000000	      0.00000000	     -3.64918804	     10.70408344	   -269.52087402	   -357.90033040	  -1089.71266602	      0.00000000	      0.00000000	      0.00000000	   3917.78188854	     -3.71994277	    -13.23648230	   -238.03996277	   -351.88925737	   -736.13295118	      0.00000000	      0.00000000	     -0.00000000	  -4522.01897004	      0.00000000	     -0.00000000	      0.00000000	      0.00000000	      0.00000000	      0.00000000	      0.00000000	      0.00000000	      0.00000000
      3.70000000	      0.00000000	     -0.00000000	      0.00000000	      0.00000000	      0.00000000	      0.00000000	      0.00000000	      0.00000000	      0.00000000	     -1.58149171	     10.07173538	   -277.22491455	   -360.66284475	  -1091.94105551	      0.00000000	      0.00000000	      0.00000000	   3804.81106467	      0.00568236	    -11.38783932	   -239.23596191	   -353.49050215	   -738.39080653	      0.00000000	      0.00000000	     -0.00000000	  -4732.21894884	      0.00000000	     -0.00000000	      0.00000000	      0.00000000	      0.00000000	      0.00000000	      0.00000000	      0.00000000	      0.00000000
      3.71000000	      0.00000000	     -0.00000000	      0.00000000	      0.00000000	      0.00000000	      0.00000000	      0.00000000	      0.00000000	      0.00000000	      2.83665037	     10.76928997	   -283.26052856	   -361.35577045	  -1091.14508482	      0.00000000	      0.00000000	      0.00000000	   4327.52381842	      4.26629604	     -9.44770660	   -245.14735413	   -355.95720629	   -738.57337275	      0.00000000	      0.00000000	     -0.00000000	  -4598.71515096	      0.00000000	     -0.00000000	      0.00000000	      0.00000000	      0.00000000	      0.00000000	      0.00000000	      0.00000000	      0.00000000
      3.72000000	      0.00000000	     -0.00000000	      0.00000000	      0.00000000	      0.00000000	      0.00000000	      0.00000000	      0.00000000	      0.00000000	      6.16288233	     10.42825699	   -291.01055908	   -363.67263189	  -1090.26958208	      0.00000000	      0.00000000	      0.00000000	   4585.42772878	      8.79015481	     -6.89167672	   -251.75874329	   -357.44324958	   -738.01820088	      0.00000000	      0.00000000	     -0.00000000	  -4757.93422476	      0.00000000	     -0.00000000	      0.00000000	      0.00000000	      0.00000000	      0.00000000	      0.00000000	      0.00000000	      0.00000000
      3.73000000	      0.00000000	     -0.00000000	      0.00000000	      0.00000000	      0.00000000	      0.00000000	      0.00000000	      0.00000000	      0.00000000	      8.93279648	     10.07173538	   -300.95581055	   -363.19628462	  -1089.57782212	      0.00000000	      0.00000000	      0.00000000	   4529.75751710	     13.22787815	     -4.85769387	   -258.06231689	   -359.15271080	   -738.04191633	      0.00000000	      0.00000000	     -0.00000000	  -4657.14021503	      0.00000000	     -0.00000000	      0.00000000	      0.00000000	      0.00000000	      0.00000000	      0.00000000	      0.00000000	      0.00000000
      3.74000000	      0.00000000	     -0.00000000	      0.00000000	      0.00000000	      0.00000000	      0.00000000	      0.00000000	      0.00000000	      0.00000000	     12.74817181	     10.42825699	   -314.68334961	   -363.22376707	  -1092.26729266	      0.00000000	      0.00000000	      0.00000000	   4903.77400451	     17.55998009	     -3.43271194	   -266.03482056	   -359.74495048	   -738.56351872	      0.00000000	      0.00000000	     -0.00000000	  -4935.13068963	      0.00000000	     -0.00000000	      0.00000000	      0.00000000	      0.00000000	      0.00000000	      0.00000000	      0.00000000	      0.00000000
      3.75000000	      0.00000000	     -0.00000000	      0.00000000	      0.00000000	      0.00000000	      0.00000000	      0.00000000	      0.00000000	      0.00000000	     15.00627232	     10.95464420	   -324.62228394	   -363.39891680	  -1090.33989651	      0.00000000	      0.00000000	      0.00000000	   5195.97265528	     21.55447374	     -1.59426472	   -272.73162842	   -360.42540465	   -739.33289986	      0.00000000	      0.00000000	     -0.00000000	  -5541.30539996	      0.00000000	     -0.00000000	      0.00000000	      0.00000000	      0.00000000	      0.00000000	      0.00000000	      0.00000000	      0.00000000
